<?xml version="1.0" encoding="UTF-8" standalone="no"?>
<!DOCTYPE svg PUBLIC "-//W3C//DTD SVG 1.1//EN" "http://www.w3.org/Graphics/SVG/1.1/DTD/svg11.dtd">
<svg width="100%" height="100%" viewBox="0 0 512 512" version="1.1" xmlns="http://www.w3.org/2000/svg" xmlns:xlink="http://www.w3.org/1999/xlink" xml:space="preserve" xmlns:serif="http://www.serif.com/" style="fill-rule:evenodd;clip-rule:evenodd;stroke-linejoin:round;stroke-miterlimit:2;">
    <g transform="matrix(1,0,0,1,-1.92341,-9.75579)">
        <g transform="matrix(0.774622,-0.305306,0.304369,0.777006,-79.7723,154.793)">
            <path d="M437.089,83.296L237.473,155.42L78.585,155.42L50.012,198.191C50.012,198.191 33.292,237.623 48.991,288.033L80.013,330.491L240.768,330.491L442.432,394.589C442.432,394.589 477.061,337.672 477.061,229.941C477.061,122.211 437.089,83.296 437.089,83.296Z" style="fill:rgb(213,182,157);"/>
        </g>
        <g transform="matrix(0.774622,-0.305306,0.304369,0.777006,-79.7723,154.793)">
            <path d="M240.768,154.23C240.768,154.23 273.327,183.708 271.535,238.943C269.742,294.177 240.768,330.491 240.768,330.491L80.013,330.491C80.013,330.491 104.737,287.679 104.153,238.943C103.568,190.206 78.585,155.42 78.585,155.42L240.768,154.23Z" style="fill:rgb(178,143,114);"/>
        </g>
        <g transform="matrix(0.774622,-0.305306,0.304369,0.777006,-79.7723,154.793)">
            <path d="M442.67,77.564C442.67,77.564 485.061,117.838 485.061,229.941C485.061,340.431 449.266,398.747 449.266,398.747C447.349,401.899 443.524,403.331 440.008,402.213L239.527,338.491L80.013,338.491C77.46,338.491 75.06,337.272 73.554,335.211L42.532,292.753C42.013,292.043 41.615,291.252 41.353,290.412C24.691,236.914 42.647,195.068 42.647,195.068C42.843,194.607 43.081,194.164 43.36,193.748L71.932,150.976C73.417,148.754 75.912,147.42 78.585,147.42L236.073,147.42L434.371,75.772C437.252,74.731 440.475,75.427 442.67,77.564ZM434.609,92.698L240.192,162.944C239.32,163.259 238.4,163.42 237.473,163.42L82.861,163.42L57.132,201.936C55.229,206.916 43.237,241.24 56.246,284.402L84.076,322.491L240.768,322.491C241.59,322.491 242.408,322.618 243.191,322.867L438.519,384.951C446.669,368.585 469.061,315.809 469.061,229.941C469.061,144.836 443.603,104.347 434.609,92.698Z" style="fill:rgb(0,93,7);"/>
        </g>
        <g transform="matrix(0.774622,-0.305306,0.304369,0.777006,-79.7723,154.793)">
            <path d="M240.768,330.491C240.768,330.491 167.858,400.252 159.693,449.7C159.693,449.7 115.225,474.554 72.546,448.253C72.546,448.253 134.192,366.525 107.314,330.491L240.768,330.491Z" style="fill:rgb(0,93,7);"/>
        </g>
        <g transform="matrix(0.774622,-0.305306,0.304369,0.777006,-79.7723,154.793)">
            <path d="M246.299,336.271C246.299,336.271 220.535,360.927 198.191,391.134C183.816,410.568 170.68,432.267 167.586,451.004C167.19,453.405 165.721,455.496 163.596,456.684C163.596,456.684 114.995,483.809 68.349,455.064C66.432,453.882 65.102,451.947 64.685,449.734C64.268,447.52 64.803,445.234 66.16,443.436C66.16,443.436 87.65,414.97 99.213,384.659C102.883,375.038 105.565,365.236 106.03,356.166C106.433,348.304 105.195,341.031 100.901,335.274C99.092,332.849 98.806,329.609 100.163,326.904C101.52,324.199 104.287,322.491 107.314,322.491L240.768,322.491C244.036,322.491 246.975,324.479 248.192,327.511C249.41,330.544 248.66,334.012 246.299,336.271ZM221.711,338.491L120.022,338.491C123.086,348.966 122.507,361.138 119.428,373.72C112.578,401.714 93.623,431.819 84.28,445.515C114.037,459.436 143.148,448.605 152.605,444.288C157.083,424.416 170.392,401.81 185.327,381.62C198.055,364.412 211.855,348.943 221.711,338.491Z" style="fill:rgb(0,93,7);"/>
        </g>
        <g transform="matrix(0.985047,-0.0352181,0.03511,0.988078,-3.34594,-6.15454)">
            <path d="M361.351,123.614C358.094,126.595 353.029,126.371 350.048,123.114C347.067,119.857 347.291,114.792 350.548,111.811L400.463,66.125C403.72,63.144 408.785,63.368 411.766,66.625C414.747,69.882 414.523,74.947 411.266,77.928L361.351,123.614Z" style="fill:rgb(0,93,7);"/>
        </g>
        <g transform="matrix(0.984126,0.0553601,-0.0551902,0.987154,27.4497,-43.8771)">
            <path d="M393.734,212.139C389.698,213.93 384.968,212.107 383.177,208.071C381.386,204.035 383.209,199.305 387.245,197.514L480.325,156.213C484.361,154.422 489.091,156.245 490.882,160.281C492.673,164.317 490.85,169.047 486.814,170.838L393.734,212.139Z" style="fill:rgb(0,93,7);"/>
        </g>
        <g transform="matrix(0.985441,0.021389,-0.0213234,0.988474,25.0448,-15.9001)">
            <path d="M405.686,298.992C401.272,298.894 397.768,295.23 397.866,290.816C397.965,286.402 401.628,282.898 406.043,282.996L483.748,284.729C488.162,284.828 491.666,288.492 491.567,292.906C491.469,297.32 487.805,300.824 483.391,300.726L405.686,298.992Z" style="fill:rgb(0,93,7);"/>
        </g>
    </g>
</svg>
