<?xml version="1.0" encoding="UTF-8" standalone="no"?>
<!DOCTYPE svg PUBLIC "-//W3C//DTD SVG 1.1//EN" "http://www.w3.org/Graphics/SVG/1.1/DTD/svg11.dtd">
<svg width="100%" height="100%" viewBox="0 0 512 512" version="1.1" xmlns="http://www.w3.org/2000/svg" xmlns:xlink="http://www.w3.org/1999/xlink" xml:space="preserve" xmlns:serif="http://www.serif.com/" style="fill-rule:evenodd;clip-rule:evenodd;stroke-linejoin:round;stroke-miterlimit:2;">
    <g>
        <g transform="matrix(1,0,0,1,0,-50.801)">
            <path d="M256,201.343L204.338,188.577L175.907,173.057L137.421,171.384L93.576,190.047L79.919,219.415L77.376,256L72.458,284.831L37.447,381.52L46.609,416.574L71.813,442.218L115.973,424.905L193.28,327.105L212.267,328.291L256,329.854L256,201.343Z" style="fill:rgb(213,182,157);"/>
        </g>
        <g transform="matrix(-1,0,0,1,512,-50.801)">
            <path d="M256,201.343L204.338,188.577L175.907,173.057L137.421,171.384L93.576,190.047L79.919,219.415L77.376,256L72.458,284.831L37.447,381.52L46.609,416.574L71.813,442.218L115.973,424.905L193.28,327.105L212.267,328.291L256,329.854L256,201.343Z" style="fill:rgb(196,162,135);"/>
        </g>
        <path d="M432.081,168.614L413.719,186.065L399.746,231.821L415.512,275.931L448.542,320.451L474.553,330.719L439.542,234.03L434.624,205.199L432.081,168.614" style="fill:rgb(162,101,54);"/>
        <g transform="matrix(-1,0,0,1,746.556,11.5519)">
            <path d="M666.636,157.062L648.275,174.513L634.302,220.269L650.068,264.379L683.097,308.899L709.109,319.167L674.098,222.478L669.18,193.647L666.636,157.062" style="fill:rgb(162,101,54);"/>
        </g>
        <g transform="matrix(1,0,0,1,37.0109,-130.471)">
            <circle cx="275.574" cy="358.595" r="27.876" style="fill:rgb(0,93,7);"/>
        </g>
        <g transform="matrix(0.389862,0,0,0.389862,257.841,14.0947)">
            <path d="M275.574,330.719C290.959,330.719 303.45,343.21 303.45,358.595C303.45,373.98 290.959,386.471 275.574,386.471C260.189,386.471 247.698,373.98 247.698,358.595C247.698,343.21 260.189,330.719 275.574,330.719ZM275.574,451.372C290.959,451.372 303.45,463.863 303.45,479.248C303.45,494.634 290.959,507.125 275.574,507.125C260.189,507.125 247.698,494.634 247.698,479.248C247.698,463.863 260.189,451.372 275.574,451.372ZM363.777,418.922C363.777,434.307 351.286,446.798 335.901,446.798C320.515,446.798 308.024,434.307 308.024,418.922C308.024,403.536 320.515,391.046 335.901,391.046C351.286,391.046 363.777,403.536 363.777,418.922ZM243.123,418.922C243.123,434.307 230.632,446.798 215.247,446.798C199.862,446.798 187.371,434.307 187.371,418.922C187.371,403.536 199.862,391.046 215.247,391.046C230.632,391.046 243.123,403.536 243.123,418.922Z" style="fill:rgb(0,93,7);"/>
        </g>
        <g transform="matrix(1,0,0,1,-128.85,-181.179)">
            <circle cx="275.574" cy="358.595" r="27.876" style="fill:rgb(0,93,7);"/>
        </g>
        <g transform="matrix(1,0,0,1,-44.9124,-154.184)">
            <path d="M235.234,391.417L221.512,391.417L221.512,373.2L235.234,373.2L235.234,359.477L253.452,359.477L253.452,373.2L267.174,373.2L267.174,391.417L253.452,391.417L253.452,405.139L235.234,405.139L235.234,391.417Z" style="fill:rgb(0,93,7);"/>
        </g>
        <path d="M396.027,374.104L312.585,303.182L256,295.555L256,279.053L318.72,276.304L396.027,374.104Z" style="fill:rgb(178,143,114);"/>
        <g transform="matrix(-1,0,0,1,618.414,62.2153)">
            <path d="M502.441,311.889L418.999,240.966L362.414,233.34L362.414,216.838L425.134,214.089L502.441,311.889Z" style="fill:rgb(196,162,135);"/>
        </g>
    </g>
</svg>
