<?xml version="1.0" encoding="UTF-8" standalone="no"?>
<!DOCTYPE svg PUBLIC "-//W3C//DTD SVG 1.1//EN" "http://www.w3.org/Graphics/SVG/1.1/DTD/svg11.dtd">
<svg width="100%" height="100%" viewBox="0 0 512 512" version="1.1" xmlns="http://www.w3.org/2000/svg" xmlns:xlink="http://www.w3.org/1999/xlink" xml:space="preserve" xmlns:serif="http://www.serif.com/" style="fill-rule:evenodd;clip-rule:evenodd;stroke-linejoin:round;stroke-miterlimit:2;">
    <g transform="matrix(3.6395,0,0,3.6395,-4163.11,-3176.03)">
        <g transform="matrix(0.608811,0,0,0.608811,863.689,506.478)">
            <path d="M579.986,744.99L498.353,779.979L573.911,826.276L653.129,775.945L579.986,744.99Z" style="fill:rgb(196,162,135);"/>
            <path d="M573.911,826.276L532.597,800.961L576.173,778.945L616.311,799.337L573.911,826.276Z" style="fill:rgb(178,143,114);"/>
            <path d="M576.173,778.945L613.52,759.182L579.986,744.99L540.731,761.815L576.173,778.945Z" style="fill:rgb(213,182,157);"/>
        </g>
        <g transform="matrix(0.56184,0,0,0.56184,932.327,525.663)">
            <g transform="matrix(1,0,0,1,87.0268,-21.2691)">
                <path d="M346.598,722.642C344.576,719.245 343.421,715.325 343.421,711.151C343.421,698.21 354.517,687.704 368.184,687.704C369.319,687.704 370.437,687.777 371.532,687.917C371.318,686.678 371.207,685.405 371.207,684.109C371.207,671.168 382.302,660.662 395.969,660.662C397.783,660.662 399.551,660.847 401.254,661.198C404.68,652.137 413.833,645.648 424.574,645.648C436.75,645.648 446.886,653.987 448.951,664.958C449.056,664.957 449.161,664.956 449.266,664.956C462.932,664.956 474.028,675.463 474.028,688.404C474.028,692.203 473.072,695.792 471.375,698.967C481.353,701.994 488.584,710.855 488.584,721.302C488.584,726.018 487.111,730.41 484.577,734.088C485.35,736.356 485.768,738.775 485.768,741.285C485.768,753.804 475.383,764.045 462.332,764.699C457.978,771.43 450.139,775.925 441.2,775.925C435.762,775.925 430.732,774.262 426.645,771.444C422.118,777.04 414.989,780.652 406.976,780.652C399.135,780.652 392.141,777.194 387.602,771.802C384.107,773.59 380.107,774.605 375.859,774.605C362.193,774.605 351.097,764.099 351.097,751.158C351.097,750.631 351.116,750.109 351.152,749.59C346.728,745.354 343.996,739.531 343.996,733.109C343.996,729.349 344.933,725.793 346.598,722.642Z" style="fill:rgb(0,93,7);"/>
            </g>
            <g transform="matrix(0.862297,0,0,0.862297,-126.127,41.3353)">
                <path d="M741.789,763.568C741.789,763.568 736.774,880.347 771.84,902.191L747.947,893.82L732.789,922.494L715.662,900.039L687.186,905.249C687.186,905.249 717.73,844.149 715.327,771.131L741.789,763.568Z" style="fill:rgb(162,101,54);"/>
            </g>
            <g transform="matrix(0.251385,0,0,0.251385,286.962,512.615)">
                <path d="M704.128,789.139L804.344,763.384L806.137,742.776L897.21,718.511L912.437,726.878L987.817,672.244L985.186,697.465L991.219,766.061L1009.29,794.725L915.623,824.114L898.147,811.488L813.685,835.767L801.842,857.123L712.086,895.147L719.507,864.878L704.128,789.139Z" style="fill:rgb(205,205,205);fill-opacity:0.52;"/>
            </g>
        </g>
    </g>
</svg>
